<mxfile host="app.diagrams.net" modified="2020-07-27T09:21:55.740Z" agent="5.0 (Windows NT 10.0; WOW64) AppleWebKit/537.36 (KHTML, like Gecko) Chrome/78.0.3904.108 Safari/537.36" etag="r1eUNdy2_OLdzvAUBfvj" version="13.0.9" type="github">
  <diagram id="r2mahAtjbMnO7HAx-X07" name="第 1 页">
    <mxGraphModel dx="2174" dy="814" grid="1" gridSize="10" guides="1" tooltips="1" connect="1" arrows="1" fold="1" page="1" pageScale="1" pageWidth="827" pageHeight="1169" math="0" shadow="0">
      <root>
        <mxCell id="0" />
        <mxCell id="1" parent="0" />
        <mxCell id="gigcxS8bZ7RCx7vJ7A64-1" value="" style="edgeStyle=orthogonalEdgeStyle;rounded=0;orthogonalLoop=1;jettySize=auto;html=1;" edge="1" parent="1" source="gigcxS8bZ7RCx7vJ7A64-2" target="gigcxS8bZ7RCx7vJ7A64-3">
          <mxGeometry relative="1" as="geometry" />
        </mxCell>
        <mxCell id="gigcxS8bZ7RCx7vJ7A64-2" value="每日签到&lt;br&gt;(每日上限1)" style="rounded=0;whiteSpace=wrap;html=1;fillColor=#dae8fc;strokeColor=#6c8ebf;" vertex="1" parent="1">
          <mxGeometry x="-690" y="120" width="120" height="60" as="geometry" />
        </mxCell>
        <mxCell id="gigcxS8bZ7RCx7vJ7A64-3" value="抽奖资格次数&lt;br&gt;(每日上限16)" style="rounded=0;whiteSpace=wrap;html=1;fillColor=#dae8fc;strokeColor=#6c8ebf;" vertex="1" parent="1">
          <mxGeometry x="-370.00000000000006" y="120" width="120" height="60" as="geometry" />
        </mxCell>
        <mxCell id="gigcxS8bZ7RCx7vJ7A64-4" style="edgeStyle=orthogonalEdgeStyle;rounded=0;orthogonalLoop=1;jettySize=auto;html=1;entryX=0;entryY=0.5;entryDx=0;entryDy=0;" edge="1" parent="1" source="gigcxS8bZ7RCx7vJ7A64-5" target="gigcxS8bZ7RCx7vJ7A64-3">
          <mxGeometry relative="1" as="geometry" />
        </mxCell>
        <mxCell id="gigcxS8bZ7RCx7vJ7A64-5" value="WEB端分享&lt;br&gt;(每日上限5)" style="rounded=0;whiteSpace=wrap;html=1;fillColor=#dae8fc;strokeColor=#6c8ebf;" vertex="1" parent="1">
          <mxGeometry x="-690" y="210" width="120" height="60" as="geometry" />
        </mxCell>
        <mxCell id="gigcxS8bZ7RCx7vJ7A64-6" style="edgeStyle=orthogonalEdgeStyle;rounded=0;orthogonalLoop=1;jettySize=auto;html=1;entryX=0;entryY=0.5;entryDx=0;entryDy=0;" edge="1" parent="1" source="gigcxS8bZ7RCx7vJ7A64-7" target="gigcxS8bZ7RCx7vJ7A64-3">
          <mxGeometry relative="1" as="geometry" />
        </mxCell>
        <mxCell id="gigcxS8bZ7RCx7vJ7A64-7" value="小程序分享&lt;br&gt;(每日上限3)" style="rounded=0;whiteSpace=wrap;html=1;fillColor=#dae8fc;strokeColor=#6c8ebf;" vertex="1" parent="1">
          <mxGeometry x="-690" y="300" width="120" height="60" as="geometry" />
        </mxCell>
        <mxCell id="gigcxS8bZ7RCx7vJ7A64-8" style="edgeStyle=orthogonalEdgeStyle;rounded=0;orthogonalLoop=1;jettySize=auto;html=1;entryX=0;entryY=0.5;entryDx=0;entryDy=0;" edge="1" parent="1" source="gigcxS8bZ7RCx7vJ7A64-9" target="gigcxS8bZ7RCx7vJ7A64-3">
          <mxGeometry relative="1" as="geometry" />
        </mxCell>
        <mxCell id="gigcxS8bZ7RCx7vJ7A64-9" value="分享小程序抽奖页面&lt;br&gt;(每日上限5)" style="rounded=0;whiteSpace=wrap;html=1;fillColor=#dae8fc;strokeColor=#6c8ebf;" vertex="1" parent="1">
          <mxGeometry x="-690" y="390" width="120" height="60" as="geometry" />
        </mxCell>
        <mxCell id="gigcxS8bZ7RCx7vJ7A64-10" style="edgeStyle=orthogonalEdgeStyle;rounded=0;orthogonalLoop=1;jettySize=auto;html=1;entryX=0;entryY=0.5;entryDx=0;entryDy=0;" edge="1" parent="1" source="gigcxS8bZ7RCx7vJ7A64-11" target="gigcxS8bZ7RCx7vJ7A64-3">
          <mxGeometry relative="1" as="geometry" />
        </mxCell>
        <mxCell id="gigcxS8bZ7RCx7vJ7A64-11" value="使用海币发送VGM&lt;br&gt;(每日上限2)" style="rounded=0;whiteSpace=wrap;html=1;fillColor=#dae8fc;strokeColor=#6c8ebf;" vertex="1" parent="1">
          <mxGeometry x="-690" y="480" width="120" height="60" as="geometry" />
        </mxCell>
      </root>
    </mxGraphModel>
  </diagram>
</mxfile>
